PathFileType	4	(X/Y/Z)	14_coords_data.trc
DataRate	CameraRate	NumFrames	NumMarkers	Units	OrigDataRate	OrigDataStartFrame	OrigNumFrames
30.0	30.0	6	21	m	30.0	11	53
Frame#	Time	THUMB_TIP	THUMB_IP	THUMB_MCP	THUMB_CMC	INDEX_TIP	INDEX_DIP	INDEX_PIP	INDEX_MCP	MIDDLE_TIP	MIDDLE_DIP	MIDDLE_PIP	MIDDLE_MCP	RING_TIP	RING_DIP	RING_PIP	RING_MCP	PINKY_TIP	PINKY_DIP	PINKY_PIP	PINKY_MCP	WRIST
X1	Y1	Z1	X2	Y2	Z2	X3	Y3	Z3	X4	Y4	Z4	X5	Y5	Z5	X6	Y6	Z6	X7	Y7	Z7	X8	Y8	Z8	X9	Y9	Z9	X10	Y10	Z10	X11	Y11	Z11	X12	Y12	Z12	X13	Y13	Z13	X14	Y14	Z14	X15	Y15	Z15	X16	Y16	Z16	X17	Y17	Z17	X18	Y18	Z18	X19	Y19	Z19	X20	Y20	Z20	X21	Y21	Z21
10	0.3333333333333333	0.028691600799560547	0.003494729995727539	0.92918798828125	0.01769969940185547	-0.006355319976806641	0.9492550048828124	0.0008457450270652771	-0.004837069988250732	0.9736199951171876	-0.009192580223083497	0.018932199478149413	0.9884180297851562	-0.009379599571228027	-0.006336450099945068	0.956322021484375	0.00335617995262146	-0.00786398983001709	0.9408560180664063	-0.002859270095825195	-0.010163599967956544	0.9194769897460937	-0.035900001525878904	-0.006327839851379393	0.9376380004882813	0.0012724200487136841	0.009569999694824218	0.9565689697265625	0.0077227001190185544	0.012258099555969239	0.9488109741210937	0.004593110084533692	0.013827199935913087	0.921155029296875	-0.0359364013671875	0.015876700401306152	0.9298200073242188	-0.003492799997329712	0.025501699447631837	0.9663259887695312	0.0045399398803710935	0.029224700927734375	0.9598489990234375	0.007619140148162842	0.03443130111694336	0.9360050048828125	-0.03111090087890625	0.03714339828491211	0.9332630004882813	-0.008439479827880859	0.042688201904296875	0.9757830200195312	0.00307246994972229	0.044162200927734374	0.9681339721679687	0.0056777501106262205	0.0496963996887207	0.9505759887695312	-0.022298500061035155	0.05506039810180664	0.9423090209960937	-0.03716080093383789	0.03825899887084961	1.0032100219726563
11	0.36666666666666664	0.02885610008239746	0.0037518599033355715	0.9289180297851563	0.017850400924682618	-0.006277170181274414	0.949	0.000997613012790679	-0.004795450210571289	0.9733099975585937	-0.00902670955657959	0.019189300537109374	0.9880419921875	-0.008939100265502929	-0.006000410079956055	0.9559329833984375	0.003596960067749023	-0.007548439979553223	0.940551025390625	-0.002655810117721557	-0.009594610214233398	0.9191420288085937	-0.03582600021362305	-0.005853640079498291	0.9373690185546875	0.001320600032806396	0.009905779838562011	0.9565040283203124	0.008035280227661134	0.012432999610900879	0.948155029296875	0.00483646011352539	0.014202099800109863	0.9208699951171875	-0.03567169952392578	0.01635490036010742	0.9295339965820313	-0.002205729961395263	0.025494499206542967	0.96410302734375	0.004687809944152832	0.029522899627685548	0.9595859985351562	0.007943170070648193	0.03479840087890625	0.9357249755859375	-0.03082900047302246	0.03756079864501953	0.9330230102539062	-0.008186059951782227	0.04280619812011719	0.9755889892578125	0.0032138299942016603	0.04445759963989258	0.9679140014648437	0.0060007100105285635	0.04999879837036133	0.9503519897460937	-0.022021699905395507	0.055429500579833986	0.942239013671875	-0.036925899505615235	0.038502300262451175	1.0028200073242188
12	0.4	0.02932119941711426	0.003686039924621582	0.9290759887695312	0.018292600631713868	-0.006403279781341553	0.9488200073242188	0.001435060024261474	-0.005111209869384766	0.9732360229492187	-0.008753310203552246	0.019109100341796876	0.9881060180664063	-0.008937430381774903	-0.006059539794921875	0.9556270141601563	0.004024099826812744	-0.007477970123291016	0.9405269775390624	-0.002176090002059936	-0.009462080001831054	0.9190560302734375	-0.03538000106811524	-0.005741129875183106	0.9372310180664063	0.001605000019073486	0.009941280364990234	0.9566119995117187	0.00850728988647461	0.012460800170898437	0.9481890258789063	0.005364019870758057	0.01431719970703125	0.920906005859375	-0.035152599334716796	0.016528200149536133	0.9294550170898438	-0.001694650053977966	0.025396900177001955	0.964447021484375	0.005100880146026611	0.029589799880981444	0.95964599609375	0.008501959800720214	0.03484690093994141	0.935760009765625	-0.030243499755859375	0.03770149993896484	0.9330390014648438	-0.0077524900436401365	0.04303260040283203	0.9753419799804688	0.003670919895172119	0.044535900115966795	0.967947021484375	0.006454080104827881	0.05010969924926758	0.950323974609375	-0.021485099792480467	0.05556290054321289	0.9422160034179687	-0.03651029968261719	0.038552101135253904	1.0028699951171876
13	0.43333333333333335	0.030001899719238282	0.0035532701015472414	0.929281982421875	0.018964199066162108	-0.006528480052947998	0.9491500244140625	0.002035880088806152	-0.005101600170135498	0.9734019775390625	-0.007639039993286132	0.019021299362182616	0.9880120239257812	-0.008468500137329102	-0.006292379856109619	0.9561099853515626	0.004577479839324951	-0.007673699855804444	0.9405560302734375	-0.001434630036354065	-0.009728910446166993	0.9192440185546875	-0.0346156005859375	-0.005998519897460938	0.9373889770507813	0.002490109920501709	0.0096427001953125	0.95656201171875	0.009231889724731445	0.012256400108337402	0.9482230224609375	0.006067430019378662	0.014035799980163573	0.9207329711914063	-0.03440280151367187	0.016277700424194335	0.9295540161132813	-0.001028589963912963	0.025312400817871093	0.9646740112304687	0.005882750034332276	0.029344600677490236	0.9596749877929688	0.009111530303955078	0.034590801239013674	0.935780029296875	-0.029521400451660157	0.03744570159912109	0.9328460083007812	-0.007213429927825928	0.04355910110473633	0.9748259887695313	0.004466700077056885	0.044395500183105466	0.9679609985351563	0.00699797010421753	0.04998699951171875	0.950406005859375	-0.0208843994140625	0.055302101135253905	0.9423170166015625	-0.03594729995727539	0.03841109848022461	1.0028599853515625
14	0.4666666666666667	0.03081839942932129	0.003132669925689697	0.9294910278320313	0.019720600128173827	-0.006917759895324707	0.9491939697265624	0.0027084300518035887	-0.005634170055389404	0.9737100219726562	-0.0069582400321960445	0.01863199996948242	0.98810400390625	-0.007561739921569824	-0.006595789909362793	0.9561380004882812	0.0053211297988891605	-0.0080799503326416	0.9408109741210937	-0.00059646201133728	-0.010185999870300293	0.919427001953125	-0.033777198791503905	-0.006430610179901123	0.9375040283203125	0.0030578598976135248	0.009347189903259277	0.9567069702148437	0.009907569885253906	0.011852100372314453	0.9485059814453125	0.006916170120239258	0.013637399673461914	0.921218994140625	-0.03365019989013672	0.01581470012664795	0.9296950073242187	-0.00106289005279541	0.025320499420166016	0.96572998046875	0.0065087699890136715	0.028920400619506837	0.960031982421875	0.00992899990081787	0.03413560104370117	0.936093017578125	-0.028759700775146484	0.036983699798583985	0.9331209716796875	-0.006524159908294678	0.0430609016418457	0.975072998046875	0.005106579780578613	0.043935298919677734	0.9682420043945312	0.007857860088348389	0.04952780151367187	0.9505889892578125	-0.02016629981994629	0.05492440032958985	0.9425960083007813	-0.035181301116943356	0.03789709854125976	1.0028900146484374
15	0.5	0.0317681999206543	0.002394759893417358	0.929739990234375	0.020569299697875975	-0.007559820175170899	0.949489990234375	0.0036938199996948244	-0.006116519927978516	0.9736599731445312	-0.0060612897872924796	0.018061899185180665	0.9883770141601562	-0.006744559764862061	-0.0070265398025512685	0.9567039794921876	0.006143330097198486	-0.0086798095703125	0.9411090087890625	0.00016978600621223402	-0.010809499740600586	0.9195910034179687	-0.03288980102539062	-0.006871200084686279	0.937656982421875	0.003886770009994507	0.008842530250549317	0.956969970703125	0.01079699993133545	0.011304400444030761	0.9490029907226563	0.0077595701217651365	0.013095800399780273	0.921447998046875	-0.03277280044555664	0.015369999885559081	0.9298040161132812	0.00013834899663925102	0.02462660026550293	0.9656680297851562	0.007480070114135742	0.02839500045776367	0.9603070068359375	0.010867500305175781	0.033577499389648435	0.936375	-0.027809099197387697	0.03658489990234375	0.9331339721679688	-0.0054258198738098146	0.04232740020751953	0.9755770263671875	0.006057909965515137	0.043410400390625	0.9684400024414063	0.008722390174865723	0.04903829956054687	0.9509039916992188	-0.019257299423217772	0.05448669815063477	0.942780029296875	-0.034320701599121095	0.037460098266601564	1.0030499877929688
